<svg xmlns="http://www.w3.org/2000/svg" viewBox="0 0 1000 170.8"><g fill="#FFF"><path d="M128.074 60.348H67.83v17.72h42.525c-2.126 24.805-23.388 36.144-42.524 36.144-25.514 0-47.485-19.844-47.485-47.485 0-26.933 21.262-48.195 47.486-48.195 20.554 0 32.603 12.757 32.603 12.757L113.19 18.53S96.89.812 67.83.812C30.268.813 1.21 32.708 1.21 66.728c0 33.31 26.93 65.913 67.33 65.913 35.437 0 60.95-24.097 60.95-59.535-.707-8.505-1.416-12.757-1.416-12.757zM177.686 47.59c-24.806 0-42.525 19.137-42.525 41.816 0 22.68 17.01 42.525 42.526 42.525 23.39 0 42.525-17.718 42.525-42.524-.708-27.64-22.68-41.815-42.524-41.815zm0 16.302c12.05 0 24.097 9.922 24.097 25.514 0 15.593-11.34 25.515-24.097 25.515-13.466 0-24.097-10.63-24.097-25.514 0-14.174 10.63-25.514 24.096-25.514zM269.823 47.59c-24.806 0-42.525 19.137-42.525 41.816 0 22.68 17.01 42.525 42.525 42.525 23.388 0 42.524-17.718 42.524-42.524 0-27.64-21.97-41.815-42.524-41.815zm0 16.302c12.048 0 24.097 9.922 24.097 25.514 0 15.593-11.34 25.515-24.097 25.515-13.466 0-24.097-10.63-24.097-25.514 0-14.174 10.63-25.514 24.097-25.514zM360.542 47.59c-22.68 0-40.398 19.845-40.398 42.525 0 25.515 20.553 42.525 40.398 42.525 12.05 0 18.427-4.96 23.39-10.63v8.504c0 14.883-9.215 23.388-21.972 23.388-12.758 0-19.137-9.922-21.972-14.883l-16.3 7.086c5.67 12.05 17.718 24.806 38.272 24.806 22.68 0 39.69-14.175 39.69-43.942V50.425H383.22v7.088c-4.96-6.38-12.758-9.922-22.68-9.922zm2.126 16.302c11.34 0 22.68 9.213 22.68 25.514 0 16.302-11.34 25.515-22.68 25.515-12.048 0-23.388-9.92-23.388-25.514-.71-15.592 11.34-25.514 23.388-25.514zM480.32 47.59c-21.262 0-39.69 17.01-39.69 42.525 0 26.932 19.845 42.525 41.816 42.525 17.72 0 29.06-9.923 35.437-18.428L503 104.29c-3.544 5.67-9.923 11.34-20.554 11.34-12.05 0-17.72-6.38-20.554-12.757l56.7-23.39-2.835-7.086C510.087 58.93 497.33 47.59 480.32 47.59zm.71 16.302c7.795 0 13.465 4.252 15.59 9.213L459.06 88.698c-2.127-12.05 9.922-24.806 21.97-24.806zM413.698 129.805h18.427V5.065h-18.427v124.74z"/><g><path d="M882.034 131.527c-9.717 0-18.268-3.887-25.653-11.66s-10.88-17.49-10.88-28.762c0-11.66 3.497-20.988 10.88-28.762 6.997-7.773 15.548-11.66 25.654-11.66 5.83 0 10.882 1.166 15.546 3.887 4.664 2.332 8.162 5.44 10.494 9.328h.778l-.778-10.494v-34.98h14.38v110.77h-13.602v-10.493h-.778c-2.332 3.887-5.83 6.997-10.494 9.33-4.275 2.33-9.716 3.497-15.546 3.497zm2.332-13.215c6.607 0 12.437-2.332 17.1-7.385 4.665-5.052 6.997-11.66 6.997-20.21s-2.332-15.16-6.996-20.21c-4.664-5.054-10.494-7.386-17.1-7.386-6.61 0-12.44 2.333-17.103 7.386-4.664 5.052-6.996 11.66-6.996 19.822 0 8.162 2.332 14.77 6.996 19.822 5.053 5.83 10.494 8.162 17.102 8.162zM596.75 129.195h-14.38V31.64h-31.095V18.034h76.568V31.64H596.75v97.555zM645.333 129.195h-14.38v-76.18h13.603v12.438h.777c1.555-4.276 4.276-7.385 8.94-10.106 4.664-2.72 8.94-3.886 13.215-3.886s7.773.778 10.882 1.944l-5.44 13.215c-1.944-.778-4.276-1.167-7.774-1.167-5.053 0-9.717 1.943-13.604 6.22-3.887 4.274-5.83 9.327-5.83 15.934v41.588zM716.46 131.527c-11.66 0-20.988-3.887-27.984-11.66s-10.883-17.49-10.883-29.15c0-11.272 3.498-20.6 10.494-28.762 6.996-8.162 15.936-12.05 26.818-12.05 11.272 0 20.21 3.5 27.207 10.884 6.608 7.384 10.106 17.1 10.106 29.538v2.72h-60.244c.39 7.774 3.11 13.604 7.773 18.268s10.106 6.607 16.713 6.607c10.105 0 17.102-4.275 20.988-13.214l12.826 5.44c-2.332 5.83-6.607 10.883-12.437 14.77-6.22 4.663-13.215 6.607-21.377 6.607zm20.6-49.75c-.39-4.275-2.332-8.55-5.83-12.437-3.498-3.887-9.33-5.83-16.325-5.83-5.44 0-9.716 1.554-13.603 5.052-3.887 3.498-6.607 7.774-8.162 13.215h43.92zM779.813 53.015V63.51h.778c1.944-3.5 5.442-6.608 9.717-9.33 4.276-2.72 9.328-3.885 14.38-3.885 9.33 0 16.714 2.72 21.767 8.55 5.052 5.83 7.384 13.604 7.384 23.32v46.64h-14.38V84.5c0-13.992-6.22-20.99-18.657-20.99-5.83 0-10.88 2.334-14.38 6.998-3.886 4.664-5.44 10.105-5.44 16.324v42.365H766.6v-76.18h13.213zM969.484 131.527c-8.55 0-15.547-1.944-20.988-6.22-5.44-4.274-9.717-9.327-12.05-15.546l12.827-5.44c3.887 9.717 10.883 14.38 20.6 14.38 4.275 0 8.162-1.165 10.883-3.11 2.72-1.942 4.275-4.663 4.275-7.772 0-5.053-3.497-8.162-10.493-10.106l-15.547-3.886c-5.053-1.166-9.328-3.498-13.992-6.996s-6.607-8.162-6.607-13.992c0-6.608 3.11-12.05 8.94-16.325 5.83-4.275 13.215-6.218 21.377-6.218 6.607 0 12.826 1.554 17.88 4.664 5.44 3.108 8.938 7.383 11.27 13.214l-12.437 5.052c-2.72-6.607-8.55-10.105-17.49-10.105-4.276 0-7.774.778-10.883 2.722-2.72 1.943-4.276 4.275-4.276 6.996 0 4.275 3.5 7.384 10.107 8.94l15.158 3.497c6.996 1.555 12.437 4.664 15.935 8.55 3.5 3.887 5.053 8.552 5.053 13.604 0 6.995-2.72 12.437-8.55 17.1-5.053 4.665-12.05 6.997-20.99 6.997z"/></g></g></svg>